<?xml version="1.0" standalone="no"?>
<!DOCTYPE svg PUBLIC "-//W3C//DTD SVG 20010904//EN"
 "http://www.w3.org/TR/2001/REC-SVG-20010904/DTD/svg10.dtd">
<svg version="1.0" xmlns="http://www.w3.org/2000/svg"
 width="1000.000000pt" height="1000.000000pt" viewBox="0 0 1000.000000 1000.000000"
 preserveAspectRatio="xMidYMid meet">
<metadata>
Created by potrace 1.14, written by Peter Selinger 2001-2017
</metadata>
<g transform="translate(0.000000,1000.000000) scale(0.100000,-0.100000)"
fill="#000000" stroke="none">
<path d="M1885 8308 c-189 -29 -403 -71 -423 -84 -32 -21 -62 -73 -62 -108 0
-52 30 -229 68 -402 l38 -172 -130 -17 c-342 -44 -436 -77 -483 -168 -17 -34
-20 -9 43 -362 53 -299 112 -579 244 -1174 141 -634 278 -1276 390 -1821 177
-864 364 -1733 485 -2250 35 -151 69 -304 75 -340 16 -94 104 -435 130 -502
23 -63 74 -130 125 -166 18 -13 61 -28 96 -34 59 -10 76 -9 199 20 74 18 245
52 380 76 282 51 668 132 985 206 121 28 278 65 349 81 71 16 166 39 210 50
44 11 195 43 335 70 141 28 350 73 466 100 248 60 488 109 716 149 91 16 274
56 405 89 131 32 262 62 289 65 140 19 364 61 537 100 106 24 243 54 303 66
168 32 295 80 353 134 56 50 67 135 33 242 -50 153 -132 448 -128 458 3 7 38
18 79 26 40 7 118 24 173 37 55 13 109 25 120 25 75 2 183 74 209 139 29 71
19 135 -48 319 -13 36 -37 107 -52 158 -25 83 -31 93 -49 87 -11 -3 -81 -17
-155 -31 -198 -37 -356 -69 -620 -125 -129 -28 -566 -117 -970 -199 -404 -82
-881 -180 -1060 -219 -179 -39 -476 -98 -660 -131 -184 -34 -425 -78 -535
-100 -110 -21 -276 -51 -370 -66 -152 -24 -178 -26 -247 -16 -43 6 -90 18
-106 26 -88 46 -173 203 -227 421 -134 545 -168 684 -189 790 -14 66 -61 248
-106 405 -119 422 -235 852 -360 1340 -62 239 -154 593 -206 785 -130 482
-267 1020 -319 1249 -48 217 -112 455 -126 472 -5 7 -23 74 -39 150 -17 77
-32 145 -35 152 -5 14 -42 14 -130 0z"/>
<path d="M6195 7761 c-215 -67 -478 -170 -582 -227 -54 -30 -63 -39 -63 -63 0
-42 25 -116 49 -147 12 -15 20 -28 19 -30 -2 -1 -35 13 -74 32 -98 47 -283 79
-410 70 -160 -11 -226 -44 -277 -139 -48 -90 -26 -303 94 -901 85 -425 141
-633 246 -916 75 -203 98 -247 135 -266 36 -19 58 -18 126 5 52 18 163 78 186
101 10 10 13 4 -87 240 -69 164 -141 364 -177 496 -12 43 -23 86 -26 95 -4 13
7 17 61 22 92 7 178 51 258 131 239 243 263 636 54 912 -26 34 -59 69 -73 79
l-25 16 108 38 c59 21 115 42 124 45 13 6 18 -1 23 -31 12 -63 160 -622 286
-1073 64 -234 121 -439 124 -456 6 -29 5 -31 -33 -43 -23 -6 -79 -28 -127 -48
-92 -38 -124 -71 -124 -125 0 -42 37 -187 56 -215 15 -24 20 -25 74 -20 57 5
124 27 560 182 268 95 370 148 370 190 0 8 -11 49 -24 92 -14 43 -28 95 -32
116 -3 21 -12 41 -18 43 -15 6 -115 -20 -152 -39 -52 -27 -198 -67 -204 -57
-3 6 -35 90 -70 188 -63 176 -148 404 -262 702 -32 85 -90 268 -128 405 -38
138 -79 281 -90 319 -11 38 -18 71 -17 73 2 1 66 20 142 42 108 31 145 46 163
66 28 33 28 44 -1 86 -30 45 -65 47 -182 10z m-887 -726 c97 -22 180 -71 220
-129 69 -103 81 -249 29 -353 -45 -88 -121 -169 -189 -204 -62 -31 -77 -29
-78 10 0 18 -89 353 -141 533 -22 76 -38 142 -34 148 9 15 117 12 193 -5z"/>
<path d="M4378 7148 c-108 -64 -152 -151 -237 -463 -108 -394 -161 -763 -161
-1125 0 -205 11 -316 42 -429 37 -137 75 -167 203 -158 79 4 122 17 137 41 15
22 7 81 -27 205 -49 177 -65 282 -72 467 -7 186 -4 208 34 222 16 6 72 26 125
46 l98 36 21 -43 c46 -91 216 -355 257 -399 51 -55 91 -67 144 -45 43 18 109
99 133 162 21 54 23 50 -91 175 -121 134 -193 236 -252 360 -118 249 -188 473
-237 765 -14 80 -28 157 -31 170 -8 31 -45 37 -86 13z m-8 -572 c0 -30 29
-215 44 -276 6 -23 1 -27 -55 -53 l-62 -27 7 52 c30 244 66 411 66 304z"/>
<path d="M6425 7158 c-46 -16 -69 -43 -83 -93 -24 -91 -7 -149 60 -198 27 -20
33 -20 365 -9 185 6 338 10 339 9 1 -1 -39 -47 -88 -102 -50 -55 -129 -145
-174 -200 -73 -87 -84 -105 -84 -138 0 -46 18 -82 62 -124 30 -29 93 -63 117
-63 24 0 418 406 567 585 102 122 126 165 122 226 -3 47 -7 55 -41 83 l-39 31
-546 2 c-366 1 -557 -2 -577 -9z"/>
<path d="M3733 6358 c-132 -104 -634 -598 -709 -696 -93 -123 -105 -179 -46
-220 45 -32 566 -291 628 -312 109 -38 172 -17 198 67 8 26 26 73 40 103 38
82 31 95 -78 145 -50 23 -139 61 -198 85 -60 24 -108 47 -108 50 0 7 319 321
448 441 71 67 92 92 92 113 0 50 -160 247 -205 252 -15 1 -39 -9 -62 -28z"/>
</g>
</svg>
